<?xml version="1.0" standalone="no"?>
<!DOCTYPE svg PUBLIC "-//W3C//DTD SVG 20010904//EN"
 "http://www.w3.org/TR/2001/REC-SVG-20010904/DTD/svg10.dtd">
<svg version="1.0" xmlns="http://www.w3.org/2000/svg"
 width="1024.000000pt" height="1024.000000pt" viewBox="0 0 1024.000000 1024.000000"
 preserveAspectRatio="xMidYMid meet">

<g transform="translate(0.000000,1024.000000) scale(0.100000,-0.100000)"
fill="#000000" stroke="none">
<path d="M5165 6561 c-60 -28 -43 -8 -471 -566 -268 -349 -350 -461 -364 -495
-8 -19 -15 -66 -15 -105 0 -93 31 -148 107 -191 l53 -29 378 -5 c321 -4 379
-7 387 -20 6 -9 10 -213 10 -503 0 -535 -2 -519 60 -571 25 -21 42 -26 84 -26
61 0 66 3 265 163 133 108 158 142 147 206 -9 56 -35 74 -113 79 -47 3 -72 9
-80 20 -17 20 -17 144 -1 160 7 7 39 12 74 12 51 0 68 4 89 23 51 43 41 157
-14 187 -11 5 -46 10 -78 10 -33 0 -64 5 -71 12 -8 8 -12 49 -12 119 0 123 8
139 69 139 57 0 100 19 116 51 18 34 21 206 4 243 -16 34 -66 56 -127 56 -47
0 -50 1 -56 31 -3 17 -6 228 -6 468 0 487 0 485 -70 526 -30 17 -55 20 -180
23 -126 2 -150 0 -185 -17z m75 -490 c6 -12 10 -120 10 -280 0 -223 -2 -262
-16 -275 -13 -14 -48 -16 -228 -16 -218 0 -236 3 -236 41 0 18 384 518 415
541 18 14 44 8 55 -11z"/>
<path d="M1920 5445 l0 -645 110 0 110 0 0 645 0 645 -110 0 -110 0 0 -645z"/>
<path d="M5980 5445 l0 -645 110 0 110 0 0 283 c0 166 4 298 11 320 13 47 60
102 110 128 52 26 139 25 195 -2 90 -43 104 -106 104 -466 l0 -263 106 0 105
0 -3 354 -3 353 -35 69 c-62 121 -165 171 -335 162 -95 -5 -151 -28 -212 -85
l-43 -40 0 239 0 238 -110 0 -110 0 0 -645z"/>
<path d="M9010 5840 l0 -110 -90 0 -90 0 0 -90 0 -90 90 0 90 0 0 -267 c1
-148 5 -288 9 -312 12 -62 57 -120 116 -150 46 -24 60 -26 180 -26 l130 0 3
93 3 92 -81 0 c-77 0 -83 2 -111 29 l-29 29 0 256 0 256 110 0 110 0 0 90 0
90 -110 0 -110 0 0 110 0 110 -110 0 -110 0 0 -110z"/>
<path d="M1248 5740 c-68 -12 -149 -52 -190 -94 -19 -20 -38 -36 -42 -36 -3 0
-6 27 -6 60 l0 60 -110 0 -110 0 0 -665 0 -665 110 0 110 0 0 251 0 251 37
-32 c20 -18 62 -45 93 -59 49 -23 67 -26 170 -26 132 0 180 14 272 78 268 186
259 631 -16 809 -92 59 -215 86 -318 68z m160 -216 c62 -33 114 -98 133 -167
17 -64 7 -204 -19 -253 -83 -161 -304 -193 -434 -63 -35 35 -51 61 -64 105
-21 74 -15 191 13 256 26 58 92 122 146 142 63 23 156 15 225 -20z"/>
<path d="M2578 5725 c-127 -35 -218 -132 -235 -250 l-6 -45 107 0 c93 0 107 2
112 18 33 105 92 138 214 119 98 -15 140 -62 140 -159 l0 -58 -147 0 c-222 0
-317 -26 -395 -107 -93 -96 -91 -270 4 -365 63 -63 136 -91 245 -96 112 -5
174 12 249 68 l52 39 7 -44 6 -45 100 0 100 0 -3 353 -3 352 -33 67 c-59 121
-161 169 -356 167 -61 0 -132 -7 -158 -14z m330 -593 c-4 -84 -28 -121 -102
-157 -102 -50 -234 -26 -270 49 -20 42 -20 59 -2 95 33 64 84 80 250 81 l128
0 -4 -68z"/>
<path d="M3720 5731 c-53 -17 -108 -51 -138 -85 -17 -20 -34 -36 -37 -36 -3 0
-5 27 -5 60 l0 60 -110 0 -110 0 0 -465 0 -465 110 0 110 0 0 270 c0 149 5
291 10 318 21 97 105 161 210 162 78 0 137 -31 170 -90 25 -45 25 -46 28 -352
l4 -308 106 0 107 0 -1 338 c-1 279 -4 346 -17 392 -23 77 -75 140 -145 176
-51 26 -68 29 -162 31 -58 1 -116 -1 -130 -6z"/>
<path d="M7289 5726 c-349 -97 -464 -567 -201 -818 97 -93 192 -128 347 -128
240 0 410 117 475 328 22 72 27 206 9 282 -37 161 -166 292 -332 336 -64 17
-236 17 -298 0z m261 -196 c103 -53 151 -130 158 -256 5 -100 -13 -163 -65
-224 -121 -141 -359 -112 -445 54 -33 63 -37 202 -8 279 55 147 224 216 360
147z"/>
<path d="M8248 5721 c-98 -31 -177 -103 -198 -181 -13 -46 -13 -132 0 -166 19
-49 70 -103 123 -128 29 -14 113 -42 187 -62 74 -20 147 -42 162 -50 74 -38
75 -120 3 -161 -47 -27 -146 -31 -199 -9 -39 16 -72 56 -81 96 l-7 30 -76 0
c-42 0 -94 -3 -114 -6 -35 -6 -36 -7 -31 -43 18 -119 109 -210 248 -247 64
-18 214 -18 286 0 108 25 203 102 227 185 16 52 15 154 -1 194 -38 89 -106
129 -307 178 -139 34 -187 57 -208 101 -42 88 113 156 219 96 37 -20 69 -68
69 -102 0 -14 16 -16 106 -16 l107 0 -6 54 c-3 29 -14 71 -25 93 -21 40 -82
101 -123 124 -79 42 -261 52 -361 20z"/>
</g>
</svg>
