<svg xmlns="http://www.w3.org/2000/svg" viewBox="0 0 20 20" fill="none">
  <path
    fill="currentColor"
    d="M8.25 2.5h5A2.25 2.25 0 0 1 15.5 4.75v10.5A2.25 2.25 0 0 1 13.25 17.5h-5A2.25 2.25 0 0 1 6 15.25V13a.75.75 0 0 1 1.5 0v2.25c0 .414.336.75.75.75h5c.414 0 .75-.336.75-.75V4.75a.75.75 0 0 0-.75-.75h-5a.75.75 0 0 0-.75.75V7a.75.75 0 0 1-1.5 0V4.75A2.25 2.25 0 0 1 8.25 2.5Z"
  />
  <path
    fill="currentColor"
    d="M9.28 13.78a.75.75 0 0 1 0-1.06L11.19 10.8H3.75a.75.75 0 0 1 0-1.5h7.44L9.28 7.38a.75.75 0 0 1 1.06-1.06l3.2 3.2a.75.75 0 0 1 0 1.06l-3.2 3.2a.75.75 0 0 1-1.06 0Z"
  />
</svg>
