<?xml version="1.0" standalone="no"?>
<!DOCTYPE svg PUBLIC "-//W3C//DTD SVG 20010904//EN"
 "http://www.w3.org/TR/2001/REC-SVG-20010904/DTD/svg10.dtd">
<svg version="1.0" xmlns="http://www.w3.org/2000/svg"
 width="1024.000000pt" height="1024.000000pt" viewBox="0 0 1024.000000 1024.000000"
 preserveAspectRatio="xMidYMid meet">

<g transform="translate(0.000000,1024.000000) scale(0.100000,-0.100000)"
fill="#000000" stroke="none">
<path d="M4602 9515 c-23 -7 -68 -35 -99 -62 -31 -26 -108 -92 -172 -147 -64
-54 -152 -129 -196 -166 -44 -38 -163 -139 -265 -225 -102 -86 -236 -200 -299
-253 -63 -53 -144 -122 -181 -152 -37 -30 -140 -118 -230 -195 -346 -298 -458
-394 -550 -469 -52 -43 -178 -149 -279 -235 -288 -245 -402 -340 -502 -421
-105 -85 -380 -316 -720 -605 -50 -42 -121 -101 -284 -235 -156 -128 -193
-167 -201 -206 -16 -85 38 -144 130 -144 57 0 73 9 152 79 28 25 103 89 165
142 63 53 165 140 226 193 62 53 115 96 118 96 3 0 5 -917 5 -2037 0 -1128 4
-2055 9 -2076 11 -46 70 -114 125 -144 l41 -22 1501 -1 1500 0 52 26 c61 30
107 80 121 131 7 26 11 434 11 1246 0 1333 4 1245 -63 1316 -71 74 -28 71
-832 71 -680 0 -722 -1 -760 -19 -49 -23 -88 -63 -112 -116 -17 -38 -18 -111
-23 -1229 l-5 -1188 -640 1 c-437 1 -643 5 -652 13 -11 8 -13 409 -13 2123 l0
2113 58 51 c116 103 556 477 597 508 23 17 71 58 106 90 69 63 238 207 280
238 28 21 423 355 619 525 63 54 167 143 232 197 64 54 168 143 232 198 64 55
156 134 205 175 182 154 406 347 455 392 101 92 191 158 216 158 18 0 79 -45
205 -151 209 -175 320 -269 419 -358 39 -34 87 -75 106 -89 19 -15 72 -58 116
-97 202 -175 268 -231 401 -341 77 -66 220 -186 316 -269 96 -82 208 -177 248
-210 40 -33 113 -95 163 -138 50 -43 125 -107 166 -142 41 -35 120 -104 176
-152 320 -279 402 -350 531 -461 l143 -123 0 -475 0 -476 39 -39 c35 -35 44
-39 88 -39 55 0 94 26 113 75 6 16 10 171 10 381 0 245 3 354 11 354 10 0 88
-66 208 -176 91 -82 259 -225 325 -276 53 -42 67 -48 110 -48 43 0 53 4 87 39
44 44 50 80 23 137 -19 39 -63 80 -429 389 -46 39 -107 91 -136 118 -52 45
-261 225 -434 372 -45 39 -135 115 -199 170 -65 55 -134 114 -155 130 -20 17
-104 89 -187 160 -140 123 -338 293 -429 369 -22 18 -58 49 -80 67 -22 19 -51
44 -65 55 -14 12 -64 56 -111 97 -48 42 -105 91 -128 109 -22 18 -139 117
-258 219 -120 102 -276 234 -348 294 -71 59 -155 130 -185 156 -118 103 -292
250 -440 372 -85 71 -187 156 -226 189 -102 86 -170 105 -272 73z m-88 -4767
c14 -20 16 -144 16 -1130 0 -1280 12 -1148 -107 -1149 -67 0 -1136 0 -1160 1
-17 0 -19 2250 -3 2281 10 18 28 19 625 19 l614 0 15 -22z"/>
<path d="M6941 5379 c-18 -6 -54 -31 -80 -57 -50 -50 -61 -79 -91 -237 -6 -33
-18 -87 -25 -120 -8 -33 -17 -78 -21 -100 -10 -62 -19 -71 -96 -101 -40 -15
-107 -47 -149 -71 -42 -23 -80 -43 -86 -43 -5 0 -43 26 -85 58 -301 229 -305
232 -353 232 -58 0 -114 -39 -265 -186 -63 -61 -142 -136 -175 -165 -71 -63
-137 -135 -154 -166 -6 -12 -11 -52 -11 -89 0 -63 4 -73 71 -203 40 -75 90
-167 112 -205 36 -60 39 -71 30 -95 -71 -169 -124 -278 -142 -290 -15 -9 -67
-17 -159 -22 -192 -11 -235 -22 -287 -73 -70 -71 -75 -97 -75 -421 0 -307 5
-346 56 -412 46 -60 106 -80 281 -91 87 -6 162 -16 178 -24 20 -10 35 -36 64
-108 21 -53 50 -119 65 -148 14 -28 26 -56 26 -62 0 -12 -43 -85 -126 -215
-82 -129 -94 -158 -94 -230 0 -45 6 -78 19 -104 11 -21 106 -121 213 -223 260
-251 288 -273 349 -286 66 -13 100 -4 184 48 299 183 283 175 323 160 20 -7
66 -27 102 -43 36 -17 89 -40 119 -51 64 -25 83 -55 105 -166 51 -252 52 -257
87 -300 21 -27 53 -52 87 -66 51 -23 59 -24 350 -24 337 0 348 3 414 79 37 43
37 44 92 310 14 68 30 129 36 136 6 7 38 23 73 35 34 12 87 35 117 49 30 15
74 33 98 41 52 16 52 16 239 -102 162 -102 216 -123 275 -108 47 13 111 56
158 105 19 21 115 111 213 202 210 196 231 225 225 321 -3 65 -6 70 -73 164
-39 54 -94 136 -124 183 l-54 86 21 42 c11 23 45 94 76 158 65 139 56 135 261
145 152 7 198 21 243 73 52 61 52 57 52 413 1 222 -3 344 -10 364 -13 34 -65
90 -100 108 -30 16 -94 25 -260 36 -69 4 -132 11 -140 14 -8 4 -30 41 -49 84
-19 42 -48 105 -64 140 -17 36 -26 70 -22 80 3 9 58 104 122 211 101 168 117
201 121 246 8 98 -1 110 -247 353 -246 242 -279 269 -341 283 -72 16 -107 -1
-275 -136 -86 -69 -164 -129 -174 -134 -15 -8 -52 6 -180 70 -99 50 -166 89
-173 102 -12 23 -20 55 -42 177 -39 214 -57 269 -102 314 -64 63 -78 66 -414
65 -168 0 -320 -5 -339 -10z m552 -253 c14 -14 23 -48 67 -251 12 -55 29 -124
37 -154 21 -73 78 -134 146 -157 29 -9 125 -54 215 -100 150 -78 167 -84 222
-84 32 0 69 4 82 9 13 6 86 64 162 130 77 67 148 123 158 127 23 7 41 -7 221
-178 101 -96 147 -147 147 -161 0 -12 -23 -58 -51 -102 -144 -224 -189 -309
-189 -356 0 -32 33 -132 69 -212 10 -23 36 -84 56 -136 77 -197 107 -217 355
-227 99 -4 162 -11 176 -19 20 -13 21 -25 27 -210 6 -156 4 -203 -7 -229 -16
-39 -35 -44 -176 -52 -163 -8 -195 -14 -242 -43 -47 -30 -31 2 -214 -415 -24
-54 -44 -114 -44 -133 0 -42 34 -110 119 -237 135 -202 124 -180 107 -213 -8
-16 -50 -61 -93 -99 -43 -38 -113 -103 -156 -144 -43 -41 -84 -78 -91 -82 -8
-4 -84 35 -187 96 -108 65 -189 106 -215 110 -45 8 -61 3 -229 -69 -60 -26
-137 -58 -170 -71 -116 -46 -164 -75 -185 -110 -20 -35 -42 -120 -75 -284 -9
-47 -22 -96 -29 -110 l-12 -25 -210 -3 c-182 -2 -213 0 -224 13 -7 9 -23 62
-35 118 -13 56 -28 125 -35 152 -7 28 -17 68 -22 90 -16 64 -67 105 -193 155
-60 24 -156 65 -213 91 -57 27 -118 51 -136 54 -39 8 -95 -13 -191 -71 -38
-24 -112 -66 -163 -94 -87 -48 -95 -50 -115 -36 -12 8 -91 82 -174 163 -136
132 -153 152 -153 181 0 18 9 45 19 60 11 15 53 84 95 153 76 128 101 197 90
247 -5 23 -76 189 -167 396 -31 70 -52 93 -110 123 -45 22 -74 28 -208 38 -85
6 -161 15 -167 19 -9 5 -12 69 -12 230 0 192 2 225 16 237 10 8 65 16 157 21
214 11 264 30 310 117 13 25 59 132 101 237 59 150 76 203 76 242 0 74 -1 77
-162 344 -32 53 -58 103 -58 111 0 15 323 320 344 324 11 3 26 -8 187 -138
147 -118 167 -130 235 -131 55 -2 67 2 159 54 90 52 137 74 287 140 58 26 112
81 128 131 6 20 17 74 25 120 21 137 56 281 72 300 14 15 39 17 224 17 166 0
210 -3 222 -14z"/>
<path d="M7104 3995 c-229 -43 -436 -158 -572 -317 -277 -325 -335 -694 -165
-1066 230 -506 869 -723 1367 -465 238 124 409 308 511 552 51 121 60 172 60
331 0 149 -5 181 -52 315 -110 316 -403 570 -748 647 -75 16 -318 18 -401 3z
m357 -254 c99 -25 187 -61 241 -99 188 -132 296 -285 338 -483 24 -111 25
-145 5 -241 -37 -176 -115 -312 -250 -436 -152 -139 -422 -225 -605 -192 -36
6 -86 16 -112 20 -64 12 -180 70 -261 131 -86 65 -157 152 -207 254 -62 124
-73 184 -68 360 2 82 9 159 15 170 6 11 23 51 39 89 70 175 211 311 411 397
118 50 319 64 454 30z"/>
</g>
</svg>
