<?xml version="1.0" encoding="utf-8"?><!-- Uploaded to: SVG Repo, www.svgrepo.com, Generator: SVG Repo Mixer Tools -->
<svg width="800px" height="800px" viewBox="0 0 24 24" fill="none" xmlns="http://www.w3.org/2000/svg">
<path d="M22 11.5V14.6C22 16.8402 22 17.9603 21.564 18.816C21.1805 19.5686 20.5686 20.1805 19.816 20.564C18.9603 21 17.8402 21 15.6 21H8.4C6.15979 21 5.03969 21 4.18404 20.564C3.43139 20.1805 2.81947 19.5686 2.43597 18.816C2 17.9603 2 16.8402 2 14.6V9.4C2 7.15979 2 6.03969 2.43597 5.18404C2.81947 4.43139 3.43139 3.81947 4.18404 3.43597C5.03969 3 6.15979 3 8.4 3H12.5M16 12C16 14.2091 14.2091 16 12 16C9.79086 16 8 14.2091 8 12C8 9.79086 9.79086 8 12 8C14.2091 8 16 9.79086 16 12Z" stroke="#000000" stroke-width="2" stroke-linecap="round" stroke-linejoin="round"/>
<path d="M16.9 4.2C16.9 3.3 17.6 2.6 18.5 2.6C19.1 2.6 19.7 2.9 20 3.4C20.3 2.9 20.9 2.6 21.5 2.6C22.4 2.6 23.1 3.3 23.1 4.2C23.1 5.1 22.6 5.8 21.9 6.5L20 8.2L18.1 6.5C17.4 5.8 16.9 5.1 16.9 4.2Z" transform="translate(-0.95 -0.05)" stroke="#000000" stroke-width="2" stroke-linecap="round" stroke-linejoin="round"/>
</svg>
