<?xml version="1.0" standalone="no"?>
<!DOCTYPE svg PUBLIC "-//W3C//DTD SVG 20010904//EN"
 "http://www.w3.org/TR/2001/REC-SVG-20010904/DTD/svg10.dtd">
<svg version="1.0" xmlns="http://www.w3.org/2000/svg"
 width="1024.000000pt" height="1024.000000pt" viewBox="0 0 1024.000000 1024.000000"
 preserveAspectRatio="xMidYMid meet">

<g transform="translate(0.000000,1024.000000) scale(0.100000,-0.100000)"
fill="#000000" stroke="none">
<path d="M4050 7514 c-89 -30 -102 -38 -130 -79 -29 -42 -29 -45 -32 -191 l-3
-149 -417 -3 -417 -2 -3 147 c-3 166 -10 188 -71 237 -36 29 -45 31 -116 31
-88 0 -128 -19 -172 -84 -22 -34 -24 -46 -26 -181 l-3 -145 -147 -5 c-174 -6
-214 -20 -292 -106 -86 -94 -81 -35 -81 -1010 0 -982 -5 -920 84 -1009 28 -28
74 -62 101 -75 l50 -23 1090 -1 1090 -1 56 26 c76 36 133 90 166 157 l28 57 0
880 0 880 -27 50 c-34 64 -91 122 -148 149 -38 18 -70 22 -200 26 l-155 5 -5
150 c-6 171 -17 203 -87 242 -40 22 -107 36 -133 27z m-1172 -156 c9 -9 12
-75 12 -235 0 -198 -2 -224 -16 -230 -9 -3 -24 -2 -33 4 -14 9 -16 40 -19 226
-2 186 0 217 14 231 19 19 26 20 42 4z m1228 -12 c13 -21 15 -55 12 -230 -3
-216 -9 -243 -46 -220 -15 10 -17 36 -20 229 -2 211 2 245 29 245 5 0 16 -11
25 -24z m-1441 -443 c22 -119 122 -183 250 -159 69 13 135 94 135 166 l0 30
420 0 420 0 0 -29 c0 -42 17 -81 48 -114 41 -43 75 -57 142 -57 67 0 101 14
142 57 31 33 48 72 48 114 l0 29 123 0 c107 0 128 -3 167 -22 70 -35 90 -80
90 -200 l0 -98 -1175 0 -1175 0 0 98 c0 120 20 165 90 200 38 19 60 22 156 22
l112 0 7 -37z m1985 -1100 c0 -739 5 -688 -76 -749 l-37 -29 -1068 0 c-1063 0
-1068 0 -1095 21 -15 11 -37 33 -48 48 -21 27 -21 39 -24 697 l-2 669 1175 0
1175 0 0 -657z"/>
<path d="M3207 6115 c-49 -19 -126 -75 -153 -112 -54 -75 -59 -98 -59 -268 0
-155 1 -162 27 -212 36 -68 90 -120 158 -152 46 -21 69 -26 145 -26 78 0 97 4
146 28 31 15 75 47 98 72 33 36 41 52 41 83 0 39 -16 62 -53 75 -25 9 -83 -17
-97 -42 -31 -59 -167 -81 -230 -38 -53 35 -72 76 -77 170 -10 148 26 241 104
273 71 30 163 7 208 -52 22 -29 32 -34 69 -34 45 0 68 16 80 57 14 44 -49 121
-134 164 -57 29 -213 37 -273 14z"/>
<path d="M3857 6114 c-59 -18 -129 -85 -147 -139 -18 -55 -8 -127 25 -175 38
-55 101 -91 231 -134 110 -36 154 -63 154 -92 0 -50 -57 -84 -142 -84 -59 0
-89 16 -133 68 -51 61 -145 33 -145 -44 0 -26 9 -44 39 -77 133 -144 408 -137
508 14 20 31 28 57 31 103 7 123 -49 184 -228 247 -134 47 -166 63 -180 89
-35 65 81 115 173 76 18 -7 47 -30 65 -50 27 -30 39 -36 72 -36 51 0 80 27 80
73 0 27 -10 43 -47 80 -69 68 -121 90 -223 94 -57 2 -101 -2 -133 -13z"/>
<path d="M2726 6097 l-26 -26 0 -336 0 -336 25 -24 c31 -32 86 -34 115 -5 19
19 20 33 20 359 0 380 1 376 -72 387 -30 5 -41 2 -62 -19z"/>
<path d="M5163 6968 c-28 -29 -29 -68 -5 -98 15 -18 33 -24 107 -31 217 -22
361 -62 538 -150 270 -134 494 -348 617 -589 25 -49 62 -150 54 -150 -3 0 -39
29 -81 65 -56 47 -84 65 -105 65 -39 0 -78 -40 -78 -80 0 -35 46 -83 243 -249
118 -99 142 -108 189 -68 43 36 228 297 228 322 0 36 -37 75 -71 75 -43 0 -59
-11 -104 -74 -22 -30 -42 -56 -45 -56 -3 0 -12 21 -19 48 -19 74 -104 240
-166 327 -183 255 -415 436 -716 560 -113 46 -333 96 -454 102 -107 5 -111 5
-132 -19z"/>
<path d="M5888 5521 c-45 -15 -87 -50 -108 -91 -17 -34 -20 -59 -20 -179 l0
-139 -137 -4 c-118 -3 -146 -7 -190 -27 -61 -27 -126 -93 -156 -159 l-22 -47
0 -875 c0 -1006 -6 -938 90 -1030 30 -28 76 -61 102 -73 l48 -22 1020 -3 c652
-2 1050 1 1104 7 66 8 94 17 132 42 59 37 105 89 130 143 18 39 19 87 19 929
0 965 3 915 -56 993 -69 90 -160 124 -331 124 l-123 0 0 143 c0 137 -1 145
-26 183 -42 66 -86 89 -165 89 -59 0 -73 -4 -110 -30 -70 -50 -83 -88 -87
-247 l-4 -138 -424 0 -424 0 0 133 c0 121 -2 138 -23 178 -33 62 -89 99 -158
104 -29 3 -66 1 -81 -4z m92 -170 c6 -12 10 -99 10 -215 0 -163 -3 -197 -16
-210 -20 -21 -54 -4 -54 27 -4 170 -5 386 -2 400 6 23 49 22 62 -2z m1250 0
c6 -12 10 -98 10 -209 0 -171 -2 -192 -19 -213 -16 -20 -21 -21 -35 -10 -14
12 -16 43 -16 226 0 116 3 215 7 218 13 14 43 7 53 -12z m-1468 -440 c26 -152
227 -207 332 -91 30 33 56 91 56 125 0 8 137 10 428 9 l427 -2 3 -23 c6 -52
14 -70 44 -105 40 -46 83 -64 148 -64 28 0 65 6 83 14 45 18 95 78 102 123 4
21 8 44 10 51 7 21 201 16 250 -7 83 -38 104 -85 105 -234 l0 -87 -1167 2
-1168 3 -3 65 c-2 36 0 90 3 120 6 48 13 60 50 97 52 49 60 51 190 49 l99 -1
8 -44z m1988 -1088 c0 -432 -4 -651 -11 -678 -14 -50 -64 -100 -114 -114 -28
-8 -346 -11 -1050 -11 -1070 1 -1056 0 -1107 47 -54 49 -52 27 -56 721 -2 353
-1 649 2 657 5 13 157 15 1171 15 l1165 0 0 -637z"/>
<path d="M6028 4130 c-20 -11 -47 -34 -60 -52 -23 -33 -23 -35 -26 -377 -3
-374 -3 -378 53 -434 56 -55 77 -57 581 -57 302 0 481 4 515 11 40 9 62 21 94
54 63 63 67 93 63 450 -3 335 -4 338 -75 392 l-36 28 -536 2 c-515 2 -537 2
-573 -17z m1050 -439 c2 -208 -1 -298 -9 -307 -9 -12 -95 -14 -480 -14 -453 0
-469 1 -479 19 -11 22 -15 583 -3 594 3 4 223 6 487 5 l481 -3 3 -294z"/>
<path d="M3251 4713 c-11 -10 -68 -81 -126 -158 -82 -109 -105 -147 -105 -172
0 -53 67 -89 124 -67 8 3 34 35 57 70 l42 65 33 -101 c34 -102 109 -255 166
-339 282 -413 739 -682 1227 -720 110 -9 144 -3 167 27 20 25 17 69 -5 91 -22
22 -41 26 -188 41 -177 19 -356 71 -512 149 -238 121 -487 364 -620 605 -37
69 -111 242 -111 263 0 4 28 -20 63 -53 80 -78 104 -94 145 -94 39 0 82 37 82
72 0 25 -64 90 -241 243 -92 79 -115 95 -143 95 -19 0 -43 -8 -55 -17z"/>
</g>
</svg>
