<svg xmlns="http://www.w3.org/2000/svg" viewBox="0 0 20 20" fill="none">
  <path
    fill="currentColor"
    d="M6.25 2.5h6.5c.2 0 .39.08.53.22l2.5 2.5c.14.14.22.33.22.53v10.5A1.75 1.75 0 0 1 14.25 18h-8.0A1.75 1.75 0 0 1 4.5 16.25v-12A1.75 1.75 0 0 1 6.25 2.5Zm6.75 1.81V5.5h1.19L13 4.31Z"
  />
  <path
    fill="currentColor"
    d="M14.25 7.25a.75.75 0 0 1 0 1.5H6.25a.75.75 0 0 1 0-1.5h8ZM10.5 10a.75.75 0 0 1 0 1.5H6.25a.75.75 0 0 1 0-1.5h4.25Z"
  />
  <path
    fill="currentColor"
    d="M8.64 14.88a.75.75 0 0 1-1.06 0l-1.2-1.2a.75.75 0 0 1 1.06-1.06l.67.67l3.12-3.12a.75.75 0 1 1 1.06 1.06l-3.65 3.65Z"
  />
</svg>
